<svg width="18" height="19" viewBox="0 0 18 19" fill="none" xmlns="http://www.w3.org/2000/svg">
<path d="M0.5625 9.49996C0.5625 13.1843 2.925 16.3062 6.1875 17.4593V1.54059C2.925 2.69371 0.5625 5.81559 0.5625 9.49996Z" fill="#2A5F9E"/>
<path d="M17.4375 9.49996C17.4375 5.81559 15.1031 2.69371 11.8125 1.54059V17.4593C15.1031 16.3062 17.4375 13.1843 17.4375 9.49996Z" fill="#C94747"/>
<path d="M6.1875 17.4594C7.05937 17.7687 8.01562 17.9375 9 17.9375C9.98438 17.9375 10.9406 17.7687 11.8125 17.4594V1.54063C10.9406 1.23125 9.98438 1.0625 9 1.0625C8.01562 1.0625 7.05937 1.23125 6.1875 1.54063V17.4594Z" fill="#FFCE31"/>
</svg>
