<svg width="18" height="19" viewBox="0 0 18 19" fill="none" xmlns="http://www.w3.org/2000/svg">
<g clip-path="url(#clip0)">
<path d="M1.78268 6.1875C3.0345 3.46792 5.79117 1.5625 9.00004 1.5625C12.2089 1.5625 14.9656 3.46792 16.2174 6.1875L1.78268 6.1875Z" fill="white" stroke="#ECECEC"/>
<path d="M9 2C5.75972 2 3.01413 4.1 2 7L16 7C14.9859 4.1 12.2403 2 9 2Z" fill="white"/>
<path d="M9.00004 17.9375C12.6844 17.9375 15.8063 15.6031 16.9594 12.3125L1.04066 12.3125C2.19379 15.6031 5.31566 17.9375 9.00004 17.9375Z" fill="#C94747"/>
<path d="M1.04062 6.6875C0.731251 7.55937 0.5625 8.51562 0.5625 9.5C0.5625 10.4844 0.731251 11.4406 1.04062 12.3125L16.9594 12.3125C17.2687 11.4406 17.4375 10.4844 17.4375 9.5C17.4375 8.51562 17.2687 7.55937 16.9594 6.6875L1.04062 6.6875Z" fill="#2A5F9E"/>
</g>
<defs>
<clipPath id="clip0">
<rect width="18" height="18" fill="white" transform="translate(18 0.5) rotate(90)"/>
</clipPath>
</defs>
</svg>
