<svg width="268" height="264" viewBox="0 0 268 264" fill="none" xmlns="http://www.w3.org/2000/svg">
<path d="M83.9989 21.3598C83.9989 21.3598 38.4119 44.5835 15.6756 80.3696C-7.06073 116.156 -5.26179 162.194 22.3659 196.368C49.9937 230.541 102.8 226.053 147.016 247.7C191.231 269.348 240.013 264.889 260.92 219.026C281.827 173.162 250.301 156.021 244.886 102.943C239.471 49.866 191.622 -27.8551 83.9989 21.3598Z" fill="#92E3A9"/>
<path opacity="0.7" d="M83.9989 21.6687C83.9989 21.6687 38.4119 44.8924 15.6756 80.6785C-7.06073 116.465 -5.26179 162.503 22.3659 196.676C49.9937 230.85 102.8 226.362 147.016 248.009C191.231 269.656 240.013 265.198 260.92 219.335C281.827 173.471 250.301 156.33 244.886 103.252C239.471 50.1749 191.622 -27.5462 83.9989 21.6687Z" fill="#B9FF8E"/>
<path d="M218.203 229.416C218.203 229.416 192.585 184.455 198.499 172.987C204.413 161.52 219.514 182.139 219.514 182.139C219.514 182.139 206.38 140.204 213.606 121.883C220.832 103.563 233.31 121.883 233.966 134.849C234.622 147.814 231.337 169.925 231.337 169.925C231.337 169.925 236.595 124.2 249.073 137.899C261.552 151.599 233.31 197.372 233.31 197.372C233.31 197.372 252.358 186.699 251.697 200.423C251.035 214.146 228.714 226.348 228.714 226.348" fill="#92E3A9"/>
<path d="M218.419 221.029C218.419 221.029 194.714 198.913 206.266 189.003C217.818 179.094 223.894 199.677 223.894 199.677C223.894 199.677 211.127 136.389 231.794 134.097C252.461 131.805 237.263 188.997 237.263 188.997C237.263 188.997 254.891 164.6 253.676 184.455C252.461 204.309 226.325 221.059 226.325 221.059" stroke="#263238" stroke-miterlimit="10"/>
<path d="M230.061 217.004L214.045 199.647" stroke="#263238" stroke-miterlimit="10"/>
<path d="M226.728 218.34L231.066 167.603" stroke="#263238" stroke-miterlimit="10"/>
<path d="M226.06 214.664L240.41 195.64" stroke="#263238" stroke-miterlimit="10"/>
<path d="M246.817 211.126H202.506L206.94 263.391H242.383L246.817 211.126Z" fill="#263238"/>
<path d="M77.6575 150.516C71.8962 147.689 65.9409 145.276 59.8367 143.296C51.0406 140.589 40.6621 143.067 40.4335 145.997C40.2048 148.927 41.7691 147.586 43.8208 150.763C45.8724 153.939 44.9458 161.364 47.8819 168.132C50.8179 174.901 59.608 178.282 59.608 178.282L77.6575 150.516Z" fill="#92E3A9" stroke="#263238" stroke-linecap="round" stroke-linejoin="round"/>
<path opacity="0.3" d="M71.7914 157.062C71.7914 157.062 58.2543 148.488 50.3607 145.552C42.467 142.616 42.0158 146.906 42.0158 146.906C43.3144 147.383 44.4289 148.258 45.1995 149.407C45.9701 150.556 46.3573 151.919 46.3056 153.302C46.3056 158.367 48.8385 168.86 54.9934 171.026C61.1483 173.192 71.7914 157.062 71.7914 157.062Z" fill="black"/>
<path d="M168.384 166.641C171.922 165.297 173.62 161.128 172.177 157.329C170.734 153.53 166.696 151.54 163.158 152.884C159.62 154.228 157.922 158.397 159.365 162.196C160.808 165.995 164.846 167.985 168.384 166.641Z" fill="#92E3A9" stroke="#263238" stroke-linecap="round" stroke-linejoin="round"/>
<path d="M71.3884 238.495L78.9812 261.273C79.1871 261.891 79.5821 262.427 80.1102 262.808C80.6383 263.188 81.2726 263.392 81.9233 263.391H93.7577C94.3631 263.392 94.9555 263.215 95.4614 262.883C95.9673 262.55 96.3644 262.076 96.6035 261.52L101.898 249.234" fill="#92E3A9"/>
<path opacity="0.3" d="M75.1968 238.495L81.478 261.273C81.5968 261.845 81.9003 262.362 82.3416 262.745C82.7829 263.128 83.3377 263.355 83.9207 263.391H93.7336C94.2725 263.364 94.7894 263.168 95.2122 262.833C95.6349 262.498 95.9425 262.039 96.0921 261.52L100.484 249.234" fill="black"/>
<path d="M71.3884 238.495L78.9812 261.273C79.1871 261.891 79.5821 262.427 80.1102 262.808C80.6383 263.188 81.2726 263.392 81.9233 263.391H93.7577C94.3631 263.392 94.9555 263.215 95.4614 262.883C95.9673 262.55 96.3644 262.076 96.6035 261.52L101.898 249.234" stroke="#263238" stroke-linecap="round" stroke-linejoin="round"/>
<path d="M128.497 238.495L120.91 261.273C120.704 261.891 120.309 262.427 119.781 262.808C119.253 263.188 118.619 263.392 117.968 263.391H106.146C105.54 263.392 104.948 263.215 104.442 262.883C103.936 262.55 103.539 262.076 103.3 261.52L98.0053 249.234" fill="#263238"/>
<path d="M128.497 238.495L120.91 261.273C120.704 261.891 120.309 262.427 119.781 262.808C119.253 263.188 118.619 263.392 117.968 263.391H106.146C105.54 263.392 104.948 263.215 104.442 262.883C103.936 262.55 103.539 262.076 103.3 261.52L98.0053 249.234" stroke="#263238" stroke-linecap="round" stroke-linejoin="round"/>
<path d="M153.64 238.495L146.047 261.273C145.841 261.891 145.446 262.427 144.918 262.808C144.39 263.188 143.756 263.392 143.105 263.391H131.27C130.665 263.392 130.073 263.215 129.567 262.883C129.061 262.55 128.664 262.076 128.425 261.52L123.13 249.234" fill="#92E3A9"/>
<path opacity="0.3" d="M148.261 238.495L143.069 261.273C142.78 262.537 141.974 263.391 141.059 263.391H132.967C132.125 263.391 131.361 262.657 131.024 261.52L125.994 249.487" fill="black"/>
<path d="M153.64 238.495L146.047 261.273C145.841 261.891 145.446 262.427 144.918 262.808C144.39 263.188 143.756 263.392 143.105 263.391H131.27C130.665 263.392 130.073 263.215 129.567 262.883C129.061 262.55 128.664 262.076 128.425 261.52L123.13 249.234" stroke="#263238" stroke-linecap="round" stroke-linejoin="round"/>
<path d="M113.065 253.482C149.008 253.482 178.145 227.057 178.145 194.46C178.145 161.863 149.008 135.439 113.065 135.439C77.1217 135.439 47.9842 161.863 47.9842 194.46C47.9842 227.057 77.1217 253.482 113.065 253.482Z" fill="#92E3A9"/>
<path opacity="0.3" d="M157.887 154.132C161.704 161.7 163.692 170.058 163.693 178.535C163.693 211.132 134.556 237.556 98.613 237.556C85.2375 237.624 72.1273 233.826 60.8595 226.618C72.2066 241.846 91.4173 251.888 113.203 251.888C148.099 251.888 176.376 226.251 176.376 194.623C176.34 178.793 169.277 164.492 157.887 154.132Z" fill="black"/>
<path d="M113.065 253.482C149.008 253.482 178.145 227.057 178.145 194.46C178.145 161.863 149.008 135.439 113.065 135.439C77.1217 135.439 47.9842 161.863 47.9842 194.46C47.9842 227.057 77.1217 253.482 113.065 253.482Z" stroke="#263238" stroke-linecap="round" stroke-linejoin="round"/>
<path d="M172.67 199.755C171.25 211.643 165.769 222.431 157.514 230.95" stroke="#92E3A9" stroke-width="2" stroke-linecap="round" stroke-linejoin="round"/>
<path d="M171.593 181.447C172.553 185.428 173.038 189.51 173.037 193.606" stroke="#92E3A9" stroke-width="2" stroke-linecap="round" stroke-linejoin="round"/>
<path d="M96.9283 139.121C102.291 137.867 107.78 137.237 113.287 137.243C116.813 137.243 120.334 137.5 123.822 138.014" stroke="#263238" stroke-width="4" stroke-linecap="round" stroke-linejoin="round"/>
<path d="M125.832 180.322C125.832 180.322 132.149 176.032 132.378 168.138C132.606 160.245 122.222 148.741 113.877 144C105.532 139.259 99.4373 140.167 99.2147 143.549C98.9921 146.93 96.056 150.769 94.9309 157.308C93.8058 163.848 93.3486 173.553 102.151 176.712" fill="#92E3A9"/>
<path d="M125.832 180.322C125.832 180.322 132.149 176.032 132.378 168.138C132.606 160.245 122.222 148.741 113.877 144C105.532 139.259 99.4373 140.167 99.2147 143.549C98.9921 146.93 96.056 150.769 94.9309 157.308C93.8058 163.848 93.3486 173.553 102.151 176.712" stroke="#263238" stroke-linecap="round" stroke-linejoin="round"/>
<path opacity="0.3" d="M112.24 177.789L113.534 177.981C119.081 178.781 121.03 175.159 120.868 169.72C120.645 162.049 110.496 145.805 106.206 143.549C101.916 141.293 100.568 144.451 100.568 144.451C100.568 144.451 101.17 144.854 99.0582 151.864C98.0835 155.1 94.4556 166.387 98.0474 171.393C101.224 175.815 107.126 177.025 112.24 177.789Z" fill="black"/>
<path opacity="0.3" d="M130.212 170.015H130.127C130.049 170.005 129.973 169.979 129.904 169.939C129.835 169.899 129.775 169.846 129.727 169.783C129.679 169.72 129.644 169.648 129.624 169.571C129.604 169.494 129.599 169.414 129.61 169.335C129.675 168.873 129.713 168.407 129.724 167.94C129.845 163.728 126.409 157.681 120.76 152.104C120.703 152.048 120.658 151.982 120.627 151.909C120.596 151.836 120.58 151.758 120.58 151.678C120.579 151.599 120.594 151.52 120.624 151.447C120.654 151.373 120.698 151.306 120.754 151.25C120.809 151.193 120.876 151.148 120.949 151.117C121.022 151.087 121.1 151.07 121.18 151.07C121.259 151.069 121.338 151.084 121.411 151.114C121.485 151.144 121.552 151.188 121.608 151.244C127.576 157.14 131.06 163.391 130.928 167.97C130.915 168.481 130.874 168.991 130.807 169.498C130.787 169.641 130.715 169.773 130.606 169.868C130.497 169.963 130.357 170.015 130.212 170.015Z" fill="black"/>
<path opacity="0.3" d="M126.975 177.271C126.861 177.272 126.749 177.24 126.653 177.179C126.556 177.119 126.479 177.032 126.43 176.929C126.381 176.827 126.362 176.712 126.375 176.599C126.389 176.486 126.434 176.379 126.506 176.29C127.497 175.076 128.289 173.711 128.852 172.247C128.909 172.098 129.022 171.978 129.168 171.912C129.313 171.847 129.479 171.842 129.628 171.898C129.777 171.955 129.898 172.069 129.963 172.214C130.029 172.36 130.034 172.525 129.977 172.675C129.369 174.259 128.512 175.735 127.438 177.049C127.382 177.118 127.311 177.173 127.231 177.212C127.151 177.25 127.064 177.271 126.975 177.271Z" fill="black"/>
<path opacity="0.3" d="M83.1612 205.88C84.9406 198.749 78.7384 191.06 69.3083 188.707C59.8782 186.354 50.791 190.228 49.0117 197.359C47.2323 204.491 53.4344 212.179 62.8646 214.532C72.2947 216.885 81.3818 213.012 83.1612 205.88Z" fill="black"/>
<path d="M82.3144 204.585C84.0938 197.454 77.8917 189.765 68.4615 187.412C59.0314 185.059 49.9443 188.933 48.1649 196.064C46.3855 203.196 52.5877 210.884 62.0178 213.237C71.4479 215.59 80.535 211.717 82.3144 204.585Z" fill="#92E3A9" stroke="#263238" stroke-linecap="round" stroke-linejoin="round"/>
<path d="M59.9269 198.172C60.0352 199.785 59.4155 201.145 58.5492 201.181C57.6828 201.217 56.8826 199.977 56.7442 198.365C56.6058 196.753 57.2556 195.387 58.128 195.357C59.0004 195.327 59.8186 196.554 59.9269 198.172Z" stroke="#263238" stroke-linecap="round" stroke-linejoin="round"/>
<path d="M71.8516 201.163C71.9599 202.781 71.3402 204.135 70.4738 204.171C69.6075 204.207 68.8073 202.968 68.6689 201.349C68.5305 199.731 69.1803 198.377 70.0527 198.341C70.9251 198.305 71.7253 199.544 71.8516 201.163Z" stroke="#263238" stroke-linecap="round" stroke-linejoin="round"/>
<path d="M91.5316 205.344C91.4046 206.502 91.1338 207.64 90.7254 208.731C87.2719 218.063 74.7696 222.1 62.4178 218.081" stroke="#263238" stroke-width="3" stroke-linecap="round" stroke-linejoin="round"/>
<path d="M89.5161 204.46H93.3486" stroke="#263238" stroke-width="3" stroke-linecap="round" stroke-linejoin="round"/>
<path d="M65.1011 179.479C64.6799 181.23 63.603 182.487 62.6945 182.259C61.786 182.03 61.3889 180.454 61.8161 178.685C62.2433 176.916 63.3142 175.677 64.2227 175.899C65.1312 176.122 65.5283 177.722 65.1011 179.479Z" fill="#263238" stroke="#263238" stroke-linecap="round" stroke-linejoin="round"/>
<path d="M76.1969 181.898C76.6204 180.141 76.2279 178.539 75.3202 178.32C74.4124 178.101 73.3333 179.349 72.9097 181.106C72.4862 182.863 72.8787 184.465 73.7865 184.684C74.6942 184.903 75.7734 183.655 76.1969 181.898Z" fill="#263238" stroke="#263238" stroke-linecap="round" stroke-linejoin="round"/>
<path d="M92.765 245.823L99.3831 261.526C99.6206 262.088 100.018 262.567 100.527 262.904C101.035 263.241 101.631 263.421 102.241 263.421H114.274C114.878 263.42 115.469 263.244 115.974 262.912C116.48 262.581 116.878 262.11 117.12 261.556L124.34 244.872H124.027" fill="#92E3A9"/>
<path opacity="0.3" d="M106.747 243.82C102.933 243.82 98.4926 244.319 94.9008 243.489L101.086 261.496C101.233 262.019 101.54 262.483 101.964 262.823C102.388 263.163 102.908 263.361 103.45 263.391H113.365C113.901 263.362 114.415 263.166 114.835 262.832C115.256 262.498 115.562 262.042 115.712 261.526L121.698 243.158L119.292 243.489C111.657 244.319 111.855 243.82 106.747 243.82Z" fill="black"/>
<path d="M92.765 245.823L99.3831 261.526C99.6206 262.088 100.018 262.567 100.527 262.904C101.035 263.241 101.631 263.421 102.241 263.421H114.274C114.878 263.42 115.469 263.244 115.974 262.912C116.48 262.581 116.878 262.11 117.12 261.556L124.34 244.872H124.027" stroke="#263238" stroke-linecap="round" stroke-linejoin="round"/>
<path d="M212.638 1.21659L179.36 49.162C179.36 49.162 176.515 55.9486 173.013 60.9844C169.511 66.0202 159.692 71.0561 159.692 71.0561C159.692 71.0561 158.82 80.4658 155.974 83.7508C153.128 87.0359 146.998 85.0685 146.998 85.0685C146.998 85.0685 144.368 87.9143 141.523 89.2259C138.677 90.5375 129.923 85.7243 129.923 85.7243C129.923 85.7243 137.798 94.2617 138.893 97.1075C139.988 99.9533 141.962 102.36 138.46 104.989C134.959 107.618 131.012 103.894 131.012 103.894C131.012 103.894 132.769 109.586 127.733 110.681C122.697 111.776 117.21 100.826 115.02 97.1075C112.83 93.3893 106.483 79.3708 105.394 78.715C104.305 78.0592 102.77 74.5576 104.96 71.2726C107.15 67.9876 122.685 46.972 124.436 45.4739C126.187 43.9758 159.692 36.028 159.692 36.028L172.393 1" fill="white"/>
<path opacity="0.2" d="M175.937 49.6854C175.937 49.6854 172.327 60.5151 168.416 62.6209C164.506 64.7267 142.245 70.4423 133.521 69.239C124.797 68.0357 119.984 64.7267 119.984 64.7267C119.984 64.7267 115.17 71.044 113.065 73.1498C111.598 74.5115 109.853 75.538 107.951 76.158C107.951 76.158 118.419 102.456 125.946 110.596C126.531 110.777 127.152 110.806 127.751 110.681C132.787 109.586 131.03 103.894 131.03 103.894C131.03 103.894 134.971 107.612 138.478 104.989C141.986 102.366 140.006 99.9532 138.911 97.1074C137.816 94.2616 129.911 85.7242 129.911 85.7242C129.911 85.7242 138.665 90.5374 141.511 89.2258C144.356 87.9142 146.986 85.0624 146.986 85.0624C146.986 85.0624 153.116 87.0358 155.962 83.7508C158.808 80.4658 159.68 71.056 159.68 71.056C159.68 71.056 169.529 66.0202 173.037 60.9844C176.545 55.9486 179.384 49.162 179.384 49.162L193.096 29.4099L175.937 49.6854Z" fill="black"/>
<path d="M212.638 1.21659L179.36 49.162C179.36 49.162 176.515 55.9486 173.013 60.9844C169.511 66.0202 159.692 71.0561 159.692 71.0561C159.692 71.0561 158.82 80.4658 155.974 83.7508C153.128 87.0359 146.998 85.0685 146.998 85.0685C146.998 85.0685 144.368 87.9143 141.523 89.2259C138.677 90.5375 129.923 85.7243 129.923 85.7243C129.923 85.7243 137.798 94.2617 138.893 97.1075C139.988 99.9533 141.962 102.36 138.46 104.989C134.959 107.618 131.012 103.894 131.012 103.894C131.012 103.894 132.769 109.586 127.733 110.681C122.697 111.776 117.21 100.826 115.02 97.1075C112.83 93.3893 106.483 79.3708 105.394 78.715C104.305 78.0592 102.77 74.5577 104.96 71.2726C107.15 67.9876 122.685 46.972 124.436 45.4739C126.187 43.9758 159.692 36.028 159.692 36.028L172.393 1" stroke="#263238" stroke-linecap="round" stroke-linejoin="round"/>
<path d="M98.8235 129.067L99.6959 132.352L113.269 129.067L125.97 95.7898L117.649 92.944L98.8235 129.067Z" fill="white" stroke="#263238" stroke-linecap="round" stroke-linejoin="round"/>
<path d="M102.981 84.8458L121.807 91.855L112.613 133.447L90.5027 126.66L102.981 84.8458Z" fill="white" stroke="#263238" stroke-linecap="round" stroke-linejoin="round"/>
<path d="M91.2427 124.176L110.863 129.945L119.4 92.944L102.211 87.4209L91.2427 124.176Z" fill="#92E3A9" stroke="#263238" stroke-linecap="round" stroke-linejoin="round"/>
<path d="M102.133 96.572C101.279 96.346 100.386 96.305 99.5155 96.4517L94.3894 113.629C95.1313 114.352 96.044 114.875 97.0427 115.151C101.062 116.258 105.466 112.991 106.874 107.859C108.281 102.727 106.146 97.673 102.133 96.572Z" fill="white" stroke="#263238" stroke-linecap="round" stroke-linejoin="round"/>
<path d="M101.405 99.4178C101.379 99.4061 101.358 99.3862 101.345 99.3611C101.332 99.336 101.327 99.3072 101.332 99.2794L101.561 98.389C101.575 98.3514 101.58 98.3113 101.576 98.2714C101.573 98.2316 101.56 98.1931 101.539 98.1589C101.518 98.1248 101.49 98.0958 101.456 98.0741C101.422 98.0525 101.384 98.0388 101.344 98.034L100.388 97.8054C100.35 97.7902 100.31 97.784 100.27 97.7872C100.229 97.7905 100.19 97.8032 100.156 97.8242C100.121 97.8453 100.092 97.8742 100.071 97.9085C100.049 97.9428 100.036 97.9817 100.033 98.022L99.8464 98.9425C99.8393 98.97 99.8228 98.9942 99.7997 99.0107C99.7766 99.0272 99.7483 99.035 99.72 99.0327C99.394 98.9993 99.0654 98.9993 98.7393 99.0327L96.9885 104.911C98.3543 106.331 100.484 107.041 100.201 108.232C100.039 108.906 99.4252 109.435 98.3482 109.195C98.1231 109.164 97.907 109.086 97.7147 108.965C97.5225 108.844 97.3586 108.683 97.2341 108.493C97.1097 108.303 97.0276 108.088 96.9935 107.864C96.9595 107.639 96.9742 107.41 97.0367 107.191L97.0908 106.95C97.1209 106.818 97.0427 106.71 96.8562 106.668L96.4892 106.577L95.4483 110.055C95.8664 110.435 96.3549 110.729 96.8862 110.921C96.9132 110.933 96.9352 110.954 96.9484 110.98C96.9616 111.007 96.9651 111.037 96.9584 111.066L96.7418 111.83C96.7252 111.867 96.7179 111.908 96.7206 111.949C96.7232 111.99 96.7357 112.029 96.757 112.064C96.7783 112.099 96.8078 112.128 96.8429 112.149C96.8779 112.17 96.9176 112.182 96.9584 112.185L97.9512 112.425C97.9861 112.444 98.0247 112.454 98.0642 112.456C98.1037 112.457 98.143 112.449 98.179 112.433C98.215 112.416 98.2468 112.392 98.272 112.362C98.2972 112.331 98.315 112.295 98.3242 112.257L98.4866 111.499C98.4956 111.471 98.5132 111.446 98.5371 111.429C98.5609 111.412 98.5896 111.403 98.619 111.403C100.737 111.625 102.175 110.584 102.62 108.731C102.969 107.251 102.47 105.994 100.923 104.809C99.5094 103.738 98.0173 103.208 98.2761 102.113C98.4565 101.355 99.1484 101.006 100.081 101.229C100.312 101.266 100.532 101.353 100.726 101.483C100.92 101.613 101.084 101.784 101.205 101.983C101.327 102.183 101.404 102.407 101.431 102.639C101.458 102.871 101.435 103.106 101.363 103.329L101.32 103.497C101.32 103.599 101.381 103.689 101.567 103.738L103.33 104.159C103.367 104.173 103.408 104.178 103.447 104.174C103.487 104.17 103.526 104.157 103.56 104.137C103.594 104.116 103.623 104.087 103.645 104.054C103.666 104.02 103.68 103.982 103.685 103.942L103.817 103.383C104.22 101.62 103.372 100.122 101.405 99.4178Z" fill="#263238"/>
<path d="M118.522 62.9518C118.522 62.9518 121.151 66.8926 121.59 70.4003C121.963 73.3899 121.264 76.415 119.617 78.9377C118.305 80.9051 116.993 82.6559 115.898 85.7243C114.803 88.7927 114.587 93.1667 113.053 95.3507C111.518 97.5346 110.646 99.7246 112.83 101.698C115.014 103.671 120.712 103.449 123.78 97.7572C126.848 92.0656 128.816 85.9348 130.783 83.7448C132.751 81.5548 139.104 76.525 139.104 76.525C139.104 76.525 156.395 74.1185 159.68 71.0561C162.965 67.9937 165.811 59.6729 165.811 59.6729" fill="white"/>
<path opacity="0.2" d="M164.506 62.6209C164.506 62.6209 155.18 68.6374 147.96 70.4424C140.74 72.2473 136.228 72.2473 133.521 75.8572C130.813 79.4671 128.106 90.8985 124.496 93.0042C120.886 95.11 120.284 87.5894 115.17 89.0935L115.002 89.1537C114.503 91.5001 114.063 93.9067 113.053 95.3567C111.518 97.5467 110.646 99.7307 112.83 101.704C115.014 103.677 120.712 103.455 123.78 97.7633C126.848 92.0717 128.816 85.9409 130.783 83.7509C132.751 81.5609 139.104 76.5311 139.104 76.5311C139.104 76.5311 156.395 74.1245 159.68 71.0621C161.666 69.209 163.489 65.4427 164.62 62.7473L164.506 62.6209Z" fill="black"/>
<path d="M118.522 62.9518C118.522 62.9518 121.151 66.8926 121.59 70.4003C121.963 73.3899 121.264 76.415 119.617 78.9377C118.305 80.9051 116.993 82.6559 115.898 85.7243C114.803 88.7927 114.587 93.1667 113.053 95.3507C111.518 97.5346 110.646 99.7246 112.83 101.698C115.014 103.671 120.712 103.449 123.78 97.7572C126.848 92.0656 128.816 85.9348 130.783 83.7448C132.751 81.5548 139.104 76.525 139.104 76.525C139.104 76.525 156.395 74.1185 159.68 71.0561C162.965 67.9937 165.811 59.6729 165.811 59.6729" stroke="#263238" stroke-linecap="round" stroke-linejoin="round"/>
<path d="M111.735 73.9018C111.735 73.9018 117.432 76.9642 121.59 73.4626" stroke="#263238" stroke-linecap="round" stroke-linejoin="round"/>
<path d="M131 103.894L125.97 94.2617" stroke="#263238" stroke-linecap="round" stroke-linejoin="round"/>
<path d="M146.986 85.0684C146.986 85.0684 150.926 81.7834 150.704 74.5576" stroke="#263238" stroke-linecap="round" stroke-linejoin="round"/>
<path d="M27.3295 263.391H265.583" stroke="#263238" stroke-linecap="round" stroke-linejoin="round"/>
<path d="M6.27185 263.391H17.1015" stroke="#263238" stroke-linecap="round" stroke-linejoin="round"/>
</svg>
