<svg width="112" height="30" viewBox="0 0 112 30" fill="none" xmlns="http://www.w3.org/2000/svg">
<path d="M48.6465 21L48.1279 19.6641H48.0576C47.6064 20.2324 47.1406 20.6279 46.6602 20.8506C46.1855 21.0674 45.5645 21.1758 44.7969 21.1758C43.8535 21.1758 43.1094 20.9062 42.5645 20.3672C42.0254 19.8281 41.7559 19.0605 41.7559 18.0645C41.7559 17.0215 42.1191 16.2539 42.8457 15.7617C43.5781 15.2637 44.6797 14.9883 46.1504 14.9355L47.8555 14.8828V14.4521C47.8555 13.4561 47.3457 12.958 46.3262 12.958C45.541 12.958 44.6182 13.1953 43.5576 13.6699L42.6699 11.8594C43.8008 11.2676 45.0547 10.9717 46.4316 10.9717C47.75 10.9717 48.7607 11.2588 49.4639 11.833C50.167 12.4072 50.5186 13.2803 50.5186 14.4521V21H48.6465ZM47.8555 16.4473L46.8184 16.4824C46.0391 16.5059 45.459 16.6465 45.0781 16.9043C44.6973 17.1621 44.5068 17.5547 44.5068 18.082C44.5068 18.8379 44.9404 19.2158 45.8076 19.2158C46.4287 19.2158 46.9238 19.0371 47.293 18.6797C47.668 18.3223 47.8555 17.8477 47.8555 17.2559V16.4473ZM52.4961 25.3242C51.8105 25.3242 51.2217 25.251 50.7295 25.1045V22.9951C51.1396 23.1064 51.5586 23.1621 51.9863 23.1621C52.4375 23.1621 52.7656 23.0361 52.9707 22.7842C53.1816 22.5322 53.2871 22.1602 53.2871 21.668V11.1738H55.9678V22.0635C55.9678 23.1064 55.666 23.9092 55.0625 24.4717C54.459 25.04 53.6035 25.3242 52.4961 25.3242ZM53.1729 8.63379C53.1729 7.76074 53.6592 7.32422 54.6318 7.32422C55.6045 7.32422 56.0908 7.76074 56.0908 8.63379C56.0908 9.0498 55.9678 9.375 55.7217 9.60938C55.4814 9.83789 55.1182 9.95215 54.6318 9.95215C53.6592 9.95215 53.1729 9.5127 53.1729 8.63379ZM65.75 21L65.3896 19.7432H65.249C64.9619 20.2002 64.5547 20.5547 64.0273 20.8066C63.5 21.0527 62.8994 21.1758 62.2256 21.1758C61.0713 21.1758 60.2012 20.8682 59.6152 20.2529C59.0293 19.6318 58.7363 18.7412 58.7363 17.5811V11.1738H61.417V16.9131C61.417 17.6221 61.543 18.1553 61.7949 18.5127C62.0469 18.8643 62.4482 19.04 62.999 19.04C63.749 19.04 64.291 18.791 64.625 18.293C64.959 17.7891 65.126 16.957 65.126 15.7969V11.1738H67.8066V21H65.75ZM74.7588 19.04C75.2275 19.04 75.79 18.9375 76.4463 18.7324V20.7275C75.7783 21.0264 74.958 21.1758 73.9854 21.1758C72.9131 21.1758 72.1309 20.9062 71.6387 20.3672C71.1523 19.8223 70.9092 19.0078 70.9092 17.9238V13.1865H69.626V12.0527L71.1025 11.1562L71.876 9.08203H73.5898V11.1738H76.3408V13.1865H73.5898V17.9238C73.5898 18.3047 73.6953 18.5859 73.9062 18.7676C74.123 18.9492 74.4072 19.04 74.7588 19.04ZM78.0635 19.7432C78.0635 19.251 78.1953 18.8789 78.459 18.627C78.7227 18.375 79.1064 18.249 79.6104 18.249C80.0967 18.249 80.4717 18.3779 80.7354 18.6357C81.0049 18.8936 81.1396 19.2627 81.1396 19.7432C81.1396 20.2061 81.0049 20.5723 80.7354 20.8418C80.4658 21.1055 80.0908 21.2373 79.6104 21.2373C79.1182 21.2373 78.7373 21.1084 78.4678 20.8506C78.1982 20.5869 78.0635 20.2178 78.0635 19.7432ZM92.3721 21H89.6914V15.2607C89.6914 14.5518 89.5713 14.0215 89.3311 13.6699C89.0967 13.3125 88.7246 13.1338 88.2148 13.1338C87.5293 13.1338 87.0312 13.3857 86.7207 13.8896C86.4102 14.3936 86.2549 15.2227 86.2549 16.377V21H83.5742V11.1738H85.6221L85.9824 12.4307H86.1318C86.3955 11.9795 86.7764 11.6279 87.2744 11.376C87.7725 11.1182 88.3438 10.9893 88.9883 10.9893C90.459 10.9893 91.4551 11.4697 91.9766 12.4307H92.2139C92.4775 11.9736 92.8643 11.6191 93.374 11.3672C93.8896 11.1152 94.4697 10.9893 95.1143 10.9893C96.2275 10.9893 97.0684 11.2764 97.6367 11.8506C98.2109 12.4189 98.498 13.333 98.498 14.5928V21H95.8086V15.2607C95.8086 14.5518 95.6885 14.0215 95.4482 13.6699C95.2139 13.3125 94.8418 13.1338 94.332 13.1338C93.6758 13.1338 93.1836 13.3682 92.8555 13.8369C92.5332 14.3057 92.3721 15.0498 92.3721 16.0693V21ZM104.369 21.1758C103.215 21.1758 102.307 20.7275 101.645 19.8311C100.988 18.9346 100.66 17.6924 100.66 16.1045C100.66 14.4932 100.994 13.2393 101.662 12.3428C102.336 11.4404 103.262 10.9893 104.439 10.9893C105.676 10.9893 106.619 11.4697 107.27 12.4307H107.357C107.223 11.6982 107.155 11.0449 107.155 10.4707V7.32422H109.845V21H107.788L107.27 19.7256H107.155C106.546 20.6924 105.617 21.1758 104.369 21.1758ZM105.31 19.04C105.995 19.04 106.496 18.8408 106.812 18.4424C107.135 18.0439 107.311 17.3672 107.34 16.4121V16.1221C107.34 15.0674 107.176 14.3115 106.848 13.8545C106.525 13.3975 105.998 13.1689 105.266 13.1689C104.668 13.1689 104.202 13.4238 103.868 13.9336C103.54 14.4375 103.376 15.1729 103.376 16.1396C103.376 17.1064 103.543 17.833 103.877 18.3193C104.211 18.7998 104.688 19.04 105.31 19.04Z" fill="#2C2C2C"/>
<circle cx="15" cy="15" r="15" fill="#F35E79"/>
<g clip-path="url(#clip0)">
<path d="M11.7857 22.5H19.2857V29.3662C19.2857 29.3662 17.9596 30 15 30C13.2042 30 11.7857 29.6831 11.7857 29.6831V22.5Z" fill="white"/>
<path d="M6.17138 17.7857C6.37496 17.5714 6.65353 17.4429 6.96424 17.4429L7.19995 17.475L10.6285 19.2857V18.0322L10.0821 8.4643C10.05 7.87502 10.5 7.36073 11.0892 7.32859C11.6785 7.29645 12.1928 7.74645 12.225 8.33573L12.5142 13.3607H12.7714L13.8857 13.4786V7.50002C13.8857 7.21586 13.9986 6.94333 14.1995 6.7424C14.4004 6.54147 14.6729 6.42859 14.9571 6.42859C15.5357 6.42859 16.0285 6.91073 16.0285 7.50002V14.3679L16.9071 14.7643L17.6464 8.9143C17.7214 8.32502 18.2571 7.90716 18.8464 7.98216C19.4357 8.03573 19.8535 8.57145 19.7785 9.18216L18.9535 15.675L19.3607 15.8572C19.5 15.9107 19.6285 15.9964 19.7464 16.0714L20.925 11.9036C21.0964 11.2929 21.6964 10.9286 22.275 11.0786C22.8428 11.25 23.1642 11.8714 22.9928 12.4822L20.2392 22.2536C20.2392 22.2857 20.2178 22.3286 20.2071 22.3607L20.175 22.5H20.1642C19.9285 23.1107 19.3178 23.5714 18.6642 23.5714H11.7C11.2821 23.5714 10.9071 23.4 10.6285 23.1107L5.3571 18.6107L6.17138 17.7857Z" fill="white"/>
</g>
<defs>
<clipPath id="clip0">
<rect width="25.7143" height="25.7143" fill="white" transform="matrix(-1 0 0 1 26.7857 4.28571)"/>
</clipPath>
</defs>
</svg>
